<?xml version="1.0" encoding="UTF-8"?>
<svg width="18px" height="18px" viewBox="0 0 18 18" version="1.1" xmlns="http://www.w3.org/2000/svg" xmlns:xlink="http://www.w3.org/1999/xlink">
    <!-- Generator: Sketch 42 (36781) - http://www.bohemiancoding.com/sketch -->
    <title>icon-statistics@3x</title>
    <desc>Created with Sketch.</desc>
    <defs></defs>
    <g id="Page-1" stroke="none" stroke-width="1" fill="none" fill-rule="evenodd">
        <g id="landing-full" transform="translate(-517.000000, -63.000000)" fill="#F16143">
            <g id="header">
                <g id="icon-statistics" transform="translate(517.000000, 63.000000)">
                    <path d="M16.6257,0 L13.3647,0 C12.9107,0 12.5437,0.368 12.5437,0.822 L12.5437,17.178 C12.5437,17.632 12.9107,18 13.3647,18 L16.6257,18 C17.0797,18 17.4477,17.632 17.4477,17.178 L17.4477,0.822 C17.4477,0.368 17.0797,0 16.6257,0" id="Fill-1"></path>
                    <path d="M10.354,3.8511 L7.093,3.8511 C6.639,3.8511 6.272,4.2191 6.272,4.6731 L6.272,17.1781 C6.272,17.6321 6.639,18.0001 7.093,18.0001 L10.354,18.0001 C10.808,18.0001 11.176,17.6321 11.176,17.1781 L11.176,4.6731 C11.176,4.2191 10.808,3.8511 10.354,3.8511" id="Fill-4"></path>
                    <path d="M4.0824,8.1656 L0.8214,8.1656 C0.3674,8.1656 0.0004,8.5336 0.0004,8.9876 L0.0004,17.1786 C0.0004,17.6316 0.3674,17.9996 0.8214,17.9996 L4.0824,17.9996 C4.5364,17.9996 4.9044,17.6316 4.9044,17.1786 L4.9044,8.9876 C4.9044,8.5336 4.5364,8.1656 4.0824,8.1656" id="Fill-7"></path>
                </g>
            </g>
        </g>
    </g>
</svg>