<?xml version="1.0" encoding="UTF-8"?>
<svg width="18px" height="18px" viewBox="0 0 18 18" version="1.1" xmlns="http://www.w3.org/2000/svg" xmlns:xlink="http://www.w3.org/1999/xlink">
    <!-- Generator: Sketch 42 (36781) - http://www.bohemiancoding.com/sketch -->
    <title>icon-logout@3x</title>
    <desc>Created with Sketch.</desc>
    <defs></defs>
    <g id="Page-1" stroke="none" stroke-width="1" fill="none" fill-rule="evenodd">
        <g id="landing-full" transform="translate(-1202.000000, -63.000000)" fill="#F16143">
            <g id="header">
                <g id="icon-logout" transform="translate(1202.000000, 62.000000)">
                    <path d="M17.3079,9.5964 L16.6539,8.9424 L12.5499,4.8474 C12.3289,4.6264 11.9749,4.6264 11.7539,4.8474 L11.0989,5.5014 C10.8779,5.7224 10.8779,6.0764 11.0989,6.2974 L13.7439,8.9334 L8.7199,8.9334 L8.7199,10.9934 L13.8059,10.9934 L11.0989,13.6914 C10.8779,13.9124 10.8779,14.2754 11.0989,14.4964 L11.7539,15.1504 C11.9749,15.3714 12.3289,15.3714 12.5499,15.1504 L17.3079,10.3924 C17.5199,10.1714 17.5199,9.8174 17.3079,9.5964" id="Fill-1"></path>
                    <g id="Group-5" transform="translate(0.000000, 0.997700)">
                        <path d="M1.4239,9.4301 L1.4239,8.5011 C1.4239,8.1921 1.6719,7.9351 1.9809,7.9351 L8.7199,7.9351 L8.7199,0.8421 C8.7199,0.3741 8.3399,0.0021 7.8709,0.0021 L0.8399,0.0021 C0.3719,0.0021 -0.0001,0.3741 -0.0001,0.8421 L-0.0001,17.1511 C-0.0001,17.6201 0.3719,18.0001 0.8399,18.0001 L7.8709,18.0001 C8.3399,18.0001 8.7199,17.6201 8.7199,17.1511 L8.7199,9.9961 L1.9809,9.9961 C1.6719,9.9961 1.4239,9.7401 1.4239,9.4301" id="Fill-3"></path>
                    </g>
                </g>
            </g>
        </g>
    </g>
</svg>