<?xml version="1.0" encoding="UTF-8"?>
<svg width="220px" height="80px" viewBox="0 0 220 80" version="1.1" xmlns="http://www.w3.org/2000/svg" xmlns:xlink="http://www.w3.org/1999/xlink">
    <!-- Generator: Sketch 42 (36781) - http://www.bohemiancoding.com/sketch -->
    <title>logo@3x</title>
    <desc>Created with Sketch.</desc>
    <defs></defs>
    <g id="Page-1" stroke="none" stroke-width="1" fill="none" fill-rule="evenodd">
        <g id="landing-full" transform="translate(-150.000000, -15.000000)" fill="#F16143">
            <g id="header">
                <g id="logo" transform="translate(150.000000, 15.000000)">
                    <path d="M81.3448,37.7307 L78.0718,37.7307 C76.3228,37.7307 75.3628,38.6907 75.3628,40.4397 L75.3628,64.0287 C75.3628,65.7787 76.3228,66.7377 78.0718,66.7377 L81.3448,66.7377 C83.0948,66.7377 84.1098,65.7787 84.1098,64.0287 L84.1098,40.4397 C84.1098,38.6907 83.0948,37.7307 81.3448,37.7307" id="Fill-1"></path>
                    <path d="M79.7084,25.2023 C76.3224,25.2023 74.4594,27.1773 74.4594,29.7733 C74.4594,32.3133 76.4914,34.2883 79.7084,34.2883 C82.9254,34.2883 84.9564,32.3133 84.9564,29.7733 C84.9564,27.1773 83.0384,25.2023 79.7084,25.2023" id="Fill-3"></path>
                    <path d="M118.7612,60.6994 C118.3092,59.7404 117.5762,59.5704 116.4472,59.8534 C115.7702,60.0784 115.0922,60.1354 114.7542,60.1354 C112.9482,60.1354 111.9322,59.3454 110.5222,57.2004 L106.7972,51.1624 L114.5842,41.0604 C115.9962,39.2544 115.2622,37.7304 112.9482,37.7304 L109.1672,37.7304 C107.7002,37.7304 106.7402,38.2384 105.8942,39.4804 L98.7272,49.5824 L98.7272,28.6454 C98.7272,26.8954 97.7682,25.9364 96.0182,25.9364 L92.6882,25.9364 C90.9392,25.9364 89.9802,26.8954 89.9802,28.6454 L89.9802,64.0294 C89.9802,65.7784 90.9392,66.7384 92.6882,66.7384 L96.0182,66.7384 C97.7682,66.7384 98.7272,65.7784 98.7272,64.0294 L98.7272,53.0244 L102.7902,60.4734 C104.9912,64.6504 107.8692,67.3584 112.9482,67.3584 C114.4152,67.3584 116.6162,67.0764 118.7042,65.9474 C120.1722,65.2144 120.4542,64.1424 120.0032,63.1824 L118.7612,60.6994 Z" id="Fill-5"></path>
                    <path d="M128.7503,37.7307 L125.4773,37.7307 C123.7283,37.7307 122.7693,38.6907 122.7693,40.4397 L122.7693,64.0287 C122.7693,65.7787 123.7283,66.7377 125.4773,66.7377 L128.7503,66.7377 C130.5003,66.7377 131.5163,65.7787 131.5163,64.0287 L131.5163,40.4397 C131.5163,38.6907 130.5003,37.7307 128.7503,37.7307" id="Fill-7"></path>
                    <path d="M127.1139,25.2023 C123.7279,25.2023 121.8659,27.1773 121.8659,29.7733 C121.8659,32.3133 123.8979,34.2883 127.1139,34.2883 C130.3309,34.2883 132.3619,32.3133 132.3619,29.7733 C132.3619,27.1773 130.4439,25.2023 127.1139,25.2023" id="Fill-9"></path>
                    <path d="M151.55,60.4736 C147.036,60.4736 144.27,56.7496 144.27,52.2346 C144.27,47.7756 147.036,43.9946 151.55,43.9946 C156.008,43.9946 158.943,47.6066 158.999,52.2346 C158.943,56.8616 156.008,60.4736 151.55,60.4736 M164.699,37.7306 L161.595,37.7306 C159.846,37.7306 158.831,38.5776 158.831,40.2136 L158.831,41.8506 C156.742,38.5776 153.356,37.1096 149.575,37.1096 C141.392,37.1096 135.692,43.9386 135.692,52.2346 C135.692,60.5306 141.392,67.3586 149.575,67.3586 C153.356,67.3586 156.855,65.8916 158.943,62.6746 L158.943,64.8196 C158.943,70.5756 155.444,73.2276 150.535,73.2276 C147.995,73.2276 145.624,72.5506 143.424,71.4216 C141.844,70.5756 140.602,70.8576 139.756,72.4376 L139.078,73.6796 C138.232,75.2036 138.513,76.6136 140.037,77.4036 C143.085,78.9846 146.81,79.9996 151.324,79.9996 C160.072,79.9996 167.408,75.7106 167.408,64.5936 L167.408,40.4396 C167.408,38.6906 166.449,37.7306 164.699,37.7306" id="Fill-11"></path>
                    <path d="M187.5003,60.361 C182.9293,60.361 180.2763,56.749 180.2763,52.234 C180.2763,47.776 182.9293,44.108 187.5003,44.108 C191.9583,44.108 194.8923,47.607 194.8923,52.234 C194.8923,56.862 191.9583,60.361 187.5003,60.361 M200.8183,37.731 L197.4883,37.731 C195.7393,37.731 194.7803,38.69 194.7803,40.44 L194.7803,41.85 C192.6923,38.577 189.3063,37.11 185.4683,37.11 C177.3413,37.11 171.5293,43.713 171.5293,52.234 C171.5293,60.812 177.3413,67.359 185.4683,67.359 C189.3063,67.359 192.6923,65.891 194.7803,62.675 L194.7803,64.029 C194.7803,65.779 195.7393,66.738 197.4883,66.738 L200.8183,66.738 C202.5683,66.738 203.5273,65.779 203.5273,64.029 L203.5273,40.44 C203.5273,38.69 202.5683,37.731 200.8183,37.731" id="Fill-13"></path>
                    <path d="M213.8555,34.2881 C217.0715,34.2881 219.1035,32.3131 219.1035,29.7731 C219.1035,27.1771 217.1855,25.2021 213.8555,25.2021 C210.4695,25.2021 208.6075,27.1771 208.6075,29.7731 C208.6075,32.3131 210.6385,34.2881 213.8555,34.2881" id="Fill-15"></path>
                    <path d="M215.4919,37.7307 L212.2189,37.7307 C210.4699,37.7307 209.5099,38.6907 209.5099,40.4397 L209.5099,64.0287 C209.5099,65.7787 210.4699,66.7377 212.2189,66.7377 L215.4919,66.7377 C217.2419,66.7377 218.2569,65.7787 218.2569,64.0287 L218.2569,40.4397 C218.2569,38.6907 217.2419,37.7307 215.4919,37.7307" id="Fill-17"></path>
                    <path d="M33.369,0 L33.369,0 C14.94,0 0,14.94 0,33.369 L0,33.369 C0,51.798 14.94,66.738 33.369,66.738 L64.654,66.738 C65.805,66.738 66.738,65.805 66.738,64.654 L66.738,33.369 C66.738,14.94 51.798,0 33.369,0" id="Fill-19"></path>
                </g>
            </g>
        </g>
    </g>
</svg>